# xmcd
#
# Track frame offsets:
#	150
#	14854
#	30734
#	44176
#	64433
#	83764
#	96244
#	108100
#	120909
#	138728
#
# Disc length: 2030 seconds
#
# Revision: 0
# Processed by: cddbd v1.5.1PL0 Copyright (c) Steve Scherf et al.
# Submitted via: dBpowerAMP V4.0
#
DISCID=8e07ec0a
DTITLE=Jo Lemaire - Feeling
DYEAR=2004
DGENRE=Chanson Français
TTITLE0=C'est mon Bateau
TTITLE1=Rivaldinho
TTITLE2=Cuzco
TTITLE3=Amado mio
TTITLE4=Nathalie
TTITLE5=Monstres Sacrés
TTITLE6=Martinique
TTITLE7=La patience est la clé
TTITLE8=Je suis venue te dire que je m'en vais
TTITLE9=Îles
EXTD=
EXTT0=
EXTT1=
EXTT2=
EXTT3=
EXTT4=
EXTT5=
EXTT6=
EXTT7=
EXTT8=
EXTT9=
PLAYORDER=
